<?xml version="1.0" standalone="yes"?>
<svg xmlns="http://www.w3.org/2000/svg" version="1.1" width="256" height="256">
  <rect x="0" y="0" width="256" height="256" style="fill:#ffffff;shape-rendering:crispEdges;"/>
  <rect x="11.130434782608695" y="11.130434782608695" width="11.130434782608695" height="11.130434782608695" style="fill:#000000;shape-rendering:crispEdges;"/>
  <rect x="22.26086956521739" y="11.130434782608695" width="11.130434782608695" height="11.130434782608695" style="fill:#000000;shape-rendering:crispEdges;"/>
  <rect x="33.391304347826086" y="11.130434782608695" width="11.130434782608695" height="11.130434782608695" style="fill:#000000;shape-rendering:crispEdges;"/>
  <rect x="44.52173913043478" y="11.130434782608695" width="11.130434782608695" height="11.130434782608695" style="fill:#000000;shape-rendering:crispEdges;"/>
  <rect x="55.65217391304348" y="11.130434782608695" width="11.130434782608695" height="11.130434782608695" style="fill:#000000;shape-rendering:crispEdges;"/>
  <rect x="66.78260869565217" y="11.130434782608695" width="11.130434782608695" height="11.130434782608695" style="fill:#000000;shape-rendering:crispEdges;"/>
  <rect x="77.91304347826087" y="11.130434782608695" width="11.130434782608695" height="11.130434782608695" style="fill:#000000;shape-rendering:crispEdges;"/>
  <rect x="100.17391304347825" y="11.130434782608695" width="11.130434782608695" height="11.130434782608695" style="fill:#000000;shape-rendering:crispEdges;"/>
  <rect x="144.69565217391303" y="11.130434782608695" width="11.130434782608695" height="11.130434782608695" style="fill:#000000;shape-rendering:crispEdges;"/>
  <rect x="166.95652173913044" y="11.130434782608695" width="11.130434782608695" height="11.130434782608695" style="fill:#000000;shape-rendering:crispEdges;"/>
  <rect x="178.08695652173913" y="11.130434782608695" width="11.130434782608695" height="11.130434782608695" style="fill:#000000;shape-rendering:crispEdges;"/>
  <rect x="189.2173913043478" y="11.130434782608695" width="11.130434782608695" height="11.130434782608695" style="fill:#000000;shape-rendering:crispEdges;"/>
  <rect x="200.3478260869565" y="11.130434782608695" width="11.130434782608695" height="11.130434782608695" style="fill:#000000;shape-rendering:crispEdges;"/>
  <rect x="211.4782608695652" y="11.130434782608695" width="11.130434782608695" height="11.130434782608695" style="fill:#000000;shape-rendering:crispEdges;"/>
  <rect x="222.6086956521739" y="11.130434782608695" width="11.130434782608695" height="11.130434782608695" style="fill:#000000;shape-rendering:crispEdges;"/>
  <rect x="233.7391304347826" y="11.130434782608695" width="11.130434782608695" height="11.130434782608695" style="fill:#000000;shape-rendering:crispEdges;"/>
  <rect x="11.130434782608695" y="22.26086956521739" width="11.130434782608695" height="11.130434782608695" style="fill:#000000;shape-rendering:crispEdges;"/>
  <rect x="77.91304347826087" y="22.26086956521739" width="11.130434782608695" height="11.130434782608695" style="fill:#000000;shape-rendering:crispEdges;"/>
  <rect x="111.30434782608694" y="22.26086956521739" width="11.130434782608695" height="11.130434782608695" style="fill:#000000;shape-rendering:crispEdges;"/>
  <rect x="122.43478260869566" y="22.26086956521739" width="11.130434782608695" height="11.130434782608695" style="fill:#000000;shape-rendering:crispEdges;"/>
  <rect x="133.56521739130434" y="22.26086956521739" width="11.130434782608695" height="11.130434782608695" style="fill:#000000;shape-rendering:crispEdges;"/>
  <rect x="166.95652173913044" y="22.26086956521739" width="11.130434782608695" height="11.130434782608695" style="fill:#000000;shape-rendering:crispEdges;"/>
  <rect x="233.7391304347826" y="22.26086956521739" width="11.130434782608695" height="11.130434782608695" style="fill:#000000;shape-rendering:crispEdges;"/>
  <rect x="11.130434782608695" y="33.391304347826086" width="11.130434782608695" height="11.130434782608695" style="fill:#000000;shape-rendering:crispEdges;"/>
  <rect x="33.391304347826086" y="33.391304347826086" width="11.130434782608695" height="11.130434782608695" style="fill:#000000;shape-rendering:crispEdges;"/>
  <rect x="44.52173913043478" y="33.391304347826086" width="11.130434782608695" height="11.130434782608695" style="fill:#000000;shape-rendering:crispEdges;"/>
  <rect x="55.65217391304348" y="33.391304347826086" width="11.130434782608695" height="11.130434782608695" style="fill:#000000;shape-rendering:crispEdges;"/>
  <rect x="77.91304347826087" y="33.391304347826086" width="11.130434782608695" height="11.130434782608695" style="fill:#000000;shape-rendering:crispEdges;"/>
  <rect x="100.17391304347825" y="33.391304347826086" width="11.130434782608695" height="11.130434782608695" style="fill:#000000;shape-rendering:crispEdges;"/>
  <rect x="111.30434782608694" y="33.391304347826086" width="11.130434782608695" height="11.130434782608695" style="fill:#000000;shape-rendering:crispEdges;"/>
  <rect x="133.56521739130434" y="33.391304347826086" width="11.130434782608695" height="11.130434782608695" style="fill:#000000;shape-rendering:crispEdges;"/>
  <rect x="144.69565217391303" y="33.391304347826086" width="11.130434782608695" height="11.130434782608695" style="fill:#000000;shape-rendering:crispEdges;"/>
  <rect x="166.95652173913044" y="33.391304347826086" width="11.130434782608695" height="11.130434782608695" style="fill:#000000;shape-rendering:crispEdges;"/>
  <rect x="189.2173913043478" y="33.391304347826086" width="11.130434782608695" height="11.130434782608695" style="fill:#000000;shape-rendering:crispEdges;"/>
  <rect x="200.3478260869565" y="33.391304347826086" width="11.130434782608695" height="11.130434782608695" style="fill:#000000;shape-rendering:crispEdges;"/>
  <rect x="211.4782608695652" y="33.391304347826086" width="11.130434782608695" height="11.130434782608695" style="fill:#000000;shape-rendering:crispEdges;"/>
  <rect x="233.7391304347826" y="33.391304347826086" width="11.130434782608695" height="11.130434782608695" style="fill:#000000;shape-rendering:crispEdges;"/>
  <rect x="11.130434782608695" y="44.52173913043478" width="11.130434782608695" height="11.130434782608695" style="fill:#000000;shape-rendering:crispEdges;"/>
  <rect x="33.391304347826086" y="44.52173913043478" width="11.130434782608695" height="11.130434782608695" style="fill:#000000;shape-rendering:crispEdges;"/>
  <rect x="44.52173913043478" y="44.52173913043478" width="11.130434782608695" height="11.130434782608695" style="fill:#000000;shape-rendering:crispEdges;"/>
  <rect x="55.65217391304348" y="44.52173913043478" width="11.130434782608695" height="11.130434782608695" style="fill:#000000;shape-rendering:crispEdges;"/>
  <rect x="77.91304347826087" y="44.52173913043478" width="11.130434782608695" height="11.130434782608695" style="fill:#000000;shape-rendering:crispEdges;"/>
  <rect x="100.17391304347825" y="44.52173913043478" width="11.130434782608695" height="11.130434782608695" style="fill:#000000;shape-rendering:crispEdges;"/>
  <rect x="111.30434782608694" y="44.52173913043478" width="11.130434782608695" height="11.130434782608695" style="fill:#000000;shape-rendering:crispEdges;"/>
  <rect x="133.56521739130434" y="44.52173913043478" width="11.130434782608695" height="11.130434782608695" style="fill:#000000;shape-rendering:crispEdges;"/>
  <rect x="166.95652173913044" y="44.52173913043478" width="11.130434782608695" height="11.130434782608695" style="fill:#000000;shape-rendering:crispEdges;"/>
  <rect x="189.2173913043478" y="44.52173913043478" width="11.130434782608695" height="11.130434782608695" style="fill:#000000;shape-rendering:crispEdges;"/>
  <rect x="200.3478260869565" y="44.52173913043478" width="11.130434782608695" height="11.130434782608695" style="fill:#000000;shape-rendering:crispEdges;"/>
  <rect x="211.4782608695652" y="44.52173913043478" width="11.130434782608695" height="11.130434782608695" style="fill:#000000;shape-rendering:crispEdges;"/>
  <rect x="233.7391304347826" y="44.52173913043478" width="11.130434782608695" height="11.130434782608695" style="fill:#000000;shape-rendering:crispEdges;"/>
  <rect x="11.130434782608695" y="55.65217391304348" width="11.130434782608695" height="11.130434782608695" style="fill:#000000;shape-rendering:crispEdges;"/>
  <rect x="33.391304347826086" y="55.65217391304348" width="11.130434782608695" height="11.130434782608695" style="fill:#000000;shape-rendering:crispEdges;"/>
  <rect x="44.52173913043478" y="55.65217391304348" width="11.130434782608695" height="11.130434782608695" style="fill:#000000;shape-rendering:crispEdges;"/>
  <rect x="55.65217391304348" y="55.65217391304348" width="11.130434782608695" height="11.130434782608695" style="fill:#000000;shape-rendering:crispEdges;"/>
  <rect x="77.91304347826087" y="55.65217391304348" width="11.130434782608695" height="11.130434782608695" style="fill:#000000;shape-rendering:crispEdges;"/>
  <rect x="111.30434782608694" y="55.65217391304348" width="11.130434782608695" height="11.130434782608695" style="fill:#000000;shape-rendering:crispEdges;"/>
  <rect x="133.56521739130434" y="55.65217391304348" width="11.130434782608695" height="11.130434782608695" style="fill:#000000;shape-rendering:crispEdges;"/>
  <rect x="166.95652173913044" y="55.65217391304348" width="11.130434782608695" height="11.130434782608695" style="fill:#000000;shape-rendering:crispEdges;"/>
  <rect x="189.2173913043478" y="55.65217391304348" width="11.130434782608695" height="11.130434782608695" style="fill:#000000;shape-rendering:crispEdges;"/>
  <rect x="200.3478260869565" y="55.65217391304348" width="11.130434782608695" height="11.130434782608695" style="fill:#000000;shape-rendering:crispEdges;"/>
  <rect x="211.4782608695652" y="55.65217391304348" width="11.130434782608695" height="11.130434782608695" style="fill:#000000;shape-rendering:crispEdges;"/>
  <rect x="233.7391304347826" y="55.65217391304348" width="11.130434782608695" height="11.130434782608695" style="fill:#000000;shape-rendering:crispEdges;"/>
  <rect x="11.130434782608695" y="66.78260869565217" width="11.130434782608695" height="11.130434782608695" style="fill:#000000;shape-rendering:crispEdges;"/>
  <rect x="77.91304347826087" y="66.78260869565217" width="11.130434782608695" height="11.130434782608695" style="fill:#000000;shape-rendering:crispEdges;"/>
  <rect x="100.17391304347825" y="66.78260869565217" width="11.130434782608695" height="11.130434782608695" style="fill:#000000;shape-rendering:crispEdges;"/>
  <rect x="111.30434782608694" y="66.78260869565217" width="11.130434782608695" height="11.130434782608695" style="fill:#000000;shape-rendering:crispEdges;"/>
  <rect x="133.56521739130434" y="66.78260869565217" width="11.130434782608695" height="11.130434782608695" style="fill:#000000;shape-rendering:crispEdges;"/>
  <rect x="144.69565217391303" y="66.78260869565217" width="11.130434782608695" height="11.130434782608695" style="fill:#000000;shape-rendering:crispEdges;"/>
  <rect x="166.95652173913044" y="66.78260869565217" width="11.130434782608695" height="11.130434782608695" style="fill:#000000;shape-rendering:crispEdges;"/>
  <rect x="233.7391304347826" y="66.78260869565217" width="11.130434782608695" height="11.130434782608695" style="fill:#000000;shape-rendering:crispEdges;"/>
  <rect x="11.130434782608695" y="77.91304347826087" width="11.130434782608695" height="11.130434782608695" style="fill:#000000;shape-rendering:crispEdges;"/>
  <rect x="22.26086956521739" y="77.91304347826087" width="11.130434782608695" height="11.130434782608695" style="fill:#000000;shape-rendering:crispEdges;"/>
  <rect x="33.391304347826086" y="77.91304347826087" width="11.130434782608695" height="11.130434782608695" style="fill:#000000;shape-rendering:crispEdges;"/>
  <rect x="44.52173913043478" y="77.91304347826087" width="11.130434782608695" height="11.130434782608695" style="fill:#000000;shape-rendering:crispEdges;"/>
  <rect x="55.65217391304348" y="77.91304347826087" width="11.130434782608695" height="11.130434782608695" style="fill:#000000;shape-rendering:crispEdges;"/>
  <rect x="66.78260869565217" y="77.91304347826087" width="11.130434782608695" height="11.130434782608695" style="fill:#000000;shape-rendering:crispEdges;"/>
  <rect x="77.91304347826087" y="77.91304347826087" width="11.130434782608695" height="11.130434782608695" style="fill:#000000;shape-rendering:crispEdges;"/>
  <rect x="100.17391304347825" y="77.91304347826087" width="11.130434782608695" height="11.130434782608695" style="fill:#000000;shape-rendering:crispEdges;"/>
  <rect x="122.43478260869566" y="77.91304347826087" width="11.130434782608695" height="11.130434782608695" style="fill:#000000;shape-rendering:crispEdges;"/>
  <rect x="144.69565217391303" y="77.91304347826087" width="11.130434782608695" height="11.130434782608695" style="fill:#000000;shape-rendering:crispEdges;"/>
  <rect x="166.95652173913044" y="77.91304347826087" width="11.130434782608695" height="11.130434782608695" style="fill:#000000;shape-rendering:crispEdges;"/>
  <rect x="178.08695652173913" y="77.91304347826087" width="11.130434782608695" height="11.130434782608695" style="fill:#000000;shape-rendering:crispEdges;"/>
  <rect x="189.2173913043478" y="77.91304347826087" width="11.130434782608695" height="11.130434782608695" style="fill:#000000;shape-rendering:crispEdges;"/>
  <rect x="200.3478260869565" y="77.91304347826087" width="11.130434782608695" height="11.130434782608695" style="fill:#000000;shape-rendering:crispEdges;"/>
  <rect x="211.4782608695652" y="77.91304347826087" width="11.130434782608695" height="11.130434782608695" style="fill:#000000;shape-rendering:crispEdges;"/>
  <rect x="222.6086956521739" y="77.91304347826087" width="11.130434782608695" height="11.130434782608695" style="fill:#000000;shape-rendering:crispEdges;"/>
  <rect x="233.7391304347826" y="77.91304347826087" width="11.130434782608695" height="11.130434782608695" style="fill:#000000;shape-rendering:crispEdges;"/>
  <rect x="100.17391304347825" y="89.04347826086956" width="11.130434782608695" height="11.130434782608695" style="fill:#000000;shape-rendering:crispEdges;"/>
  <rect x="111.30434782608694" y="89.04347826086956" width="11.130434782608695" height="11.130434782608695" style="fill:#000000;shape-rendering:crispEdges;"/>
  <rect x="122.43478260869566" y="89.04347826086956" width="11.130434782608695" height="11.130434782608695" style="fill:#000000;shape-rendering:crispEdges;"/>
  <rect x="11.130434782608695" y="100.17391304347825" width="11.130434782608695" height="11.130434782608695" style="fill:#000000;shape-rendering:crispEdges;"/>
  <rect x="22.26086956521739" y="100.17391304347825" width="11.130434782608695" height="11.130434782608695" style="fill:#000000;shape-rendering:crispEdges;"/>
  <rect x="44.52173913043478" y="100.17391304347825" width="11.130434782608695" height="11.130434782608695" style="fill:#000000;shape-rendering:crispEdges;"/>
  <rect x="77.91304347826087" y="100.17391304347825" width="11.130434782608695" height="11.130434782608695" style="fill:#000000;shape-rendering:crispEdges;"/>
  <rect x="89.04347826086956" y="100.17391304347825" width="11.130434782608695" height="11.130434782608695" style="fill:#000000;shape-rendering:crispEdges;"/>
  <rect x="111.30434782608694" y="100.17391304347825" width="11.130434782608695" height="11.130434782608695" style="fill:#000000;shape-rendering:crispEdges;"/>
  <rect x="133.56521739130434" y="100.17391304347825" width="11.130434782608695" height="11.130434782608695" style="fill:#000000;shape-rendering:crispEdges;"/>
  <rect x="155.82608695652172" y="100.17391304347825" width="11.130434782608695" height="11.130434782608695" style="fill:#000000;shape-rendering:crispEdges;"/>
  <rect x="166.95652173913044" y="100.17391304347825" width="11.130434782608695" height="11.130434782608695" style="fill:#000000;shape-rendering:crispEdges;"/>
  <rect x="178.08695652173913" y="100.17391304347825" width="11.130434782608695" height="11.130434782608695" style="fill:#000000;shape-rendering:crispEdges;"/>
  <rect x="200.3478260869565" y="100.17391304347825" width="11.130434782608695" height="11.130434782608695" style="fill:#000000;shape-rendering:crispEdges;"/>
  <rect x="211.4782608695652" y="100.17391304347825" width="11.130434782608695" height="11.130434782608695" style="fill:#000000;shape-rendering:crispEdges;"/>
  <rect x="233.7391304347826" y="100.17391304347825" width="11.130434782608695" height="11.130434782608695" style="fill:#000000;shape-rendering:crispEdges;"/>
  <rect x="11.130434782608695" y="111.30434782608694" width="11.130434782608695" height="11.130434782608695" style="fill:#000000;shape-rendering:crispEdges;"/>
  <rect x="33.391304347826086" y="111.30434782608694" width="11.130434782608695" height="11.130434782608695" style="fill:#000000;shape-rendering:crispEdges;"/>
  <rect x="55.65217391304348" y="111.30434782608694" width="11.130434782608695" height="11.130434782608695" style="fill:#000000;shape-rendering:crispEdges;"/>
  <rect x="89.04347826086956" y="111.30434782608694" width="11.130434782608695" height="11.130434782608695" style="fill:#000000;shape-rendering:crispEdges;"/>
  <rect x="111.30434782608694" y="111.30434782608694" width="11.130434782608695" height="11.130434782608695" style="fill:#000000;shape-rendering:crispEdges;"/>
  <rect x="144.69565217391303" y="111.30434782608694" width="11.130434782608695" height="11.130434782608695" style="fill:#000000;shape-rendering:crispEdges;"/>
  <rect x="189.2173913043478" y="111.30434782608694" width="11.130434782608695" height="11.130434782608695" style="fill:#000000;shape-rendering:crispEdges;"/>
  <rect x="211.4782608695652" y="111.30434782608694" width="11.130434782608695" height="11.130434782608695" style="fill:#000000;shape-rendering:crispEdges;"/>
  <rect x="222.6086956521739" y="111.30434782608694" width="11.130434782608695" height="11.130434782608695" style="fill:#000000;shape-rendering:crispEdges;"/>
  <rect x="233.7391304347826" y="111.30434782608694" width="11.130434782608695" height="11.130434782608695" style="fill:#000000;shape-rendering:crispEdges;"/>
  <rect x="55.65217391304348" y="122.43478260869566" width="11.130434782608695" height="11.130434782608695" style="fill:#000000;shape-rendering:crispEdges;"/>
  <rect x="77.91304347826087" y="122.43478260869566" width="11.130434782608695" height="11.130434782608695" style="fill:#000000;shape-rendering:crispEdges;"/>
  <rect x="111.30434782608694" y="122.43478260869566" width="11.130434782608695" height="11.130434782608695" style="fill:#000000;shape-rendering:crispEdges;"/>
  <rect x="122.43478260869566" y="122.43478260869566" width="11.130434782608695" height="11.130434782608695" style="fill:#000000;shape-rendering:crispEdges;"/>
  <rect x="133.56521739130434" y="122.43478260869566" width="11.130434782608695" height="11.130434782608695" style="fill:#000000;shape-rendering:crispEdges;"/>
  <rect x="144.69565217391303" y="122.43478260869566" width="11.130434782608695" height="11.130434782608695" style="fill:#000000;shape-rendering:crispEdges;"/>
  <rect x="155.82608695652172" y="122.43478260869566" width="11.130434782608695" height="11.130434782608695" style="fill:#000000;shape-rendering:crispEdges;"/>
  <rect x="166.95652173913044" y="122.43478260869566" width="11.130434782608695" height="11.130434782608695" style="fill:#000000;shape-rendering:crispEdges;"/>
  <rect x="189.2173913043478" y="122.43478260869566" width="11.130434782608695" height="11.130434782608695" style="fill:#000000;shape-rendering:crispEdges;"/>
  <rect x="211.4782608695652" y="122.43478260869566" width="11.130434782608695" height="11.130434782608695" style="fill:#000000;shape-rendering:crispEdges;"/>
  <rect x="222.6086956521739" y="122.43478260869566" width="11.130434782608695" height="11.130434782608695" style="fill:#000000;shape-rendering:crispEdges;"/>
  <rect x="33.391304347826086" y="133.56521739130434" width="11.130434782608695" height="11.130434782608695" style="fill:#000000;shape-rendering:crispEdges;"/>
  <rect x="55.65217391304348" y="133.56521739130434" width="11.130434782608695" height="11.130434782608695" style="fill:#000000;shape-rendering:crispEdges;"/>
  <rect x="66.78260869565217" y="133.56521739130434" width="11.130434782608695" height="11.130434782608695" style="fill:#000000;shape-rendering:crispEdges;"/>
  <rect x="89.04347826086956" y="133.56521739130434" width="11.130434782608695" height="11.130434782608695" style="fill:#000000;shape-rendering:crispEdges;"/>
  <rect x="100.17391304347825" y="133.56521739130434" width="11.130434782608695" height="11.130434782608695" style="fill:#000000;shape-rendering:crispEdges;"/>
  <rect x="111.30434782608694" y="133.56521739130434" width="11.130434782608695" height="11.130434782608695" style="fill:#000000;shape-rendering:crispEdges;"/>
  <rect x="122.43478260869566" y="133.56521739130434" width="11.130434782608695" height="11.130434782608695" style="fill:#000000;shape-rendering:crispEdges;"/>
  <rect x="133.56521739130434" y="133.56521739130434" width="11.130434782608695" height="11.130434782608695" style="fill:#000000;shape-rendering:crispEdges;"/>
  <rect x="155.82608695652172" y="133.56521739130434" width="11.130434782608695" height="11.130434782608695" style="fill:#000000;shape-rendering:crispEdges;"/>
  <rect x="166.95652173913044" y="133.56521739130434" width="11.130434782608695" height="11.130434782608695" style="fill:#000000;shape-rendering:crispEdges;"/>
  <rect x="200.3478260869565" y="133.56521739130434" width="11.130434782608695" height="11.130434782608695" style="fill:#000000;shape-rendering:crispEdges;"/>
  <rect x="22.26086956521739" y="144.69565217391303" width="11.130434782608695" height="11.130434782608695" style="fill:#000000;shape-rendering:crispEdges;"/>
  <rect x="44.52173913043478" y="144.69565217391303" width="11.130434782608695" height="11.130434782608695" style="fill:#000000;shape-rendering:crispEdges;"/>
  <rect x="66.78260869565217" y="144.69565217391303" width="11.130434782608695" height="11.130434782608695" style="fill:#000000;shape-rendering:crispEdges;"/>
  <rect x="77.91304347826087" y="144.69565217391303" width="11.130434782608695" height="11.130434782608695" style="fill:#000000;shape-rendering:crispEdges;"/>
  <rect x="89.04347826086956" y="144.69565217391303" width="11.130434782608695" height="11.130434782608695" style="fill:#000000;shape-rendering:crispEdges;"/>
  <rect x="100.17391304347825" y="144.69565217391303" width="11.130434782608695" height="11.130434782608695" style="fill:#000000;shape-rendering:crispEdges;"/>
  <rect x="111.30434782608694" y="144.69565217391303" width="11.130434782608695" height="11.130434782608695" style="fill:#000000;shape-rendering:crispEdges;"/>
  <rect x="144.69565217391303" y="144.69565217391303" width="11.130434782608695" height="11.130434782608695" style="fill:#000000;shape-rendering:crispEdges;"/>
  <rect x="166.95652173913044" y="144.69565217391303" width="11.130434782608695" height="11.130434782608695" style="fill:#000000;shape-rendering:crispEdges;"/>
  <rect x="189.2173913043478" y="144.69565217391303" width="11.130434782608695" height="11.130434782608695" style="fill:#000000;shape-rendering:crispEdges;"/>
  <rect x="211.4782608695652" y="144.69565217391303" width="11.130434782608695" height="11.130434782608695" style="fill:#000000;shape-rendering:crispEdges;"/>
  <rect x="111.30434782608694" y="155.82608695652172" width="11.130434782608695" height="11.130434782608695" style="fill:#000000;shape-rendering:crispEdges;"/>
  <rect x="189.2173913043478" y="155.82608695652172" width="11.130434782608695" height="11.130434782608695" style="fill:#000000;shape-rendering:crispEdges;"/>
  <rect x="222.6086956521739" y="155.82608695652172" width="11.130434782608695" height="11.130434782608695" style="fill:#000000;shape-rendering:crispEdges;"/>
  <rect x="233.7391304347826" y="155.82608695652172" width="11.130434782608695" height="11.130434782608695" style="fill:#000000;shape-rendering:crispEdges;"/>
  <rect x="11.130434782608695" y="166.95652173913044" width="11.130434782608695" height="11.130434782608695" style="fill:#000000;shape-rendering:crispEdges;"/>
  <rect x="22.26086956521739" y="166.95652173913044" width="11.130434782608695" height="11.130434782608695" style="fill:#000000;shape-rendering:crispEdges;"/>
  <rect x="33.391304347826086" y="166.95652173913044" width="11.130434782608695" height="11.130434782608695" style="fill:#000000;shape-rendering:crispEdges;"/>
  <rect x="44.52173913043478" y="166.95652173913044" width="11.130434782608695" height="11.130434782608695" style="fill:#000000;shape-rendering:crispEdges;"/>
  <rect x="55.65217391304348" y="166.95652173913044" width="11.130434782608695" height="11.130434782608695" style="fill:#000000;shape-rendering:crispEdges;"/>
  <rect x="66.78260869565217" y="166.95652173913044" width="11.130434782608695" height="11.130434782608695" style="fill:#000000;shape-rendering:crispEdges;"/>
  <rect x="77.91304347826087" y="166.95652173913044" width="11.130434782608695" height="11.130434782608695" style="fill:#000000;shape-rendering:crispEdges;"/>
  <rect x="100.17391304347825" y="166.95652173913044" width="11.130434782608695" height="11.130434782608695" style="fill:#000000;shape-rendering:crispEdges;"/>
  <rect x="111.30434782608694" y="166.95652173913044" width="11.130434782608695" height="11.130434782608695" style="fill:#000000;shape-rendering:crispEdges;"/>
  <rect x="133.56521739130434" y="166.95652173913044" width="11.130434782608695" height="11.130434782608695" style="fill:#000000;shape-rendering:crispEdges;"/>
  <rect x="155.82608695652172" y="166.95652173913044" width="11.130434782608695" height="11.130434782608695" style="fill:#000000;shape-rendering:crispEdges;"/>
  <rect x="189.2173913043478" y="166.95652173913044" width="11.130434782608695" height="11.130434782608695" style="fill:#000000;shape-rendering:crispEdges;"/>
  <rect x="200.3478260869565" y="166.95652173913044" width="11.130434782608695" height="11.130434782608695" style="fill:#000000;shape-rendering:crispEdges;"/>
  <rect x="211.4782608695652" y="166.95652173913044" width="11.130434782608695" height="11.130434782608695" style="fill:#000000;shape-rendering:crispEdges;"/>
  <rect x="11.130434782608695" y="178.08695652173913" width="11.130434782608695" height="11.130434782608695" style="fill:#000000;shape-rendering:crispEdges;"/>
  <rect x="77.91304347826087" y="178.08695652173913" width="11.130434782608695" height="11.130434782608695" style="fill:#000000;shape-rendering:crispEdges;"/>
  <rect x="133.56521739130434" y="178.08695652173913" width="11.130434782608695" height="11.130434782608695" style="fill:#000000;shape-rendering:crispEdges;"/>
  <rect x="144.69565217391303" y="178.08695652173913" width="11.130434782608695" height="11.130434782608695" style="fill:#000000;shape-rendering:crispEdges;"/>
  <rect x="166.95652173913044" y="178.08695652173913" width="11.130434782608695" height="11.130434782608695" style="fill:#000000;shape-rendering:crispEdges;"/>
  <rect x="178.08695652173913" y="178.08695652173913" width="11.130434782608695" height="11.130434782608695" style="fill:#000000;shape-rendering:crispEdges;"/>
  <rect x="189.2173913043478" y="178.08695652173913" width="11.130434782608695" height="11.130434782608695" style="fill:#000000;shape-rendering:crispEdges;"/>
  <rect x="211.4782608695652" y="178.08695652173913" width="11.130434782608695" height="11.130434782608695" style="fill:#000000;shape-rendering:crispEdges;"/>
  <rect x="222.6086956521739" y="178.08695652173913" width="11.130434782608695" height="11.130434782608695" style="fill:#000000;shape-rendering:crispEdges;"/>
  <rect x="11.130434782608695" y="189.2173913043478" width="11.130434782608695" height="11.130434782608695" style="fill:#000000;shape-rendering:crispEdges;"/>
  <rect x="33.391304347826086" y="189.2173913043478" width="11.130434782608695" height="11.130434782608695" style="fill:#000000;shape-rendering:crispEdges;"/>
  <rect x="44.52173913043478" y="189.2173913043478" width="11.130434782608695" height="11.130434782608695" style="fill:#000000;shape-rendering:crispEdges;"/>
  <rect x="55.65217391304348" y="189.2173913043478" width="11.130434782608695" height="11.130434782608695" style="fill:#000000;shape-rendering:crispEdges;"/>
  <rect x="77.91304347826087" y="189.2173913043478" width="11.130434782608695" height="11.130434782608695" style="fill:#000000;shape-rendering:crispEdges;"/>
  <rect x="133.56521739130434" y="189.2173913043478" width="11.130434782608695" height="11.130434782608695" style="fill:#000000;shape-rendering:crispEdges;"/>
  <rect x="178.08695652173913" y="189.2173913043478" width="11.130434782608695" height="11.130434782608695" style="fill:#000000;shape-rendering:crispEdges;"/>
  <rect x="189.2173913043478" y="189.2173913043478" width="11.130434782608695" height="11.130434782608695" style="fill:#000000;shape-rendering:crispEdges;"/>
  <rect x="200.3478260869565" y="189.2173913043478" width="11.130434782608695" height="11.130434782608695" style="fill:#000000;shape-rendering:crispEdges;"/>
  <rect x="222.6086956521739" y="189.2173913043478" width="11.130434782608695" height="11.130434782608695" style="fill:#000000;shape-rendering:crispEdges;"/>
  <rect x="233.7391304347826" y="189.2173913043478" width="11.130434782608695" height="11.130434782608695" style="fill:#000000;shape-rendering:crispEdges;"/>
  <rect x="11.130434782608695" y="200.3478260869565" width="11.130434782608695" height="11.130434782608695" style="fill:#000000;shape-rendering:crispEdges;"/>
  <rect x="33.391304347826086" y="200.3478260869565" width="11.130434782608695" height="11.130434782608695" style="fill:#000000;shape-rendering:crispEdges;"/>
  <rect x="44.52173913043478" y="200.3478260869565" width="11.130434782608695" height="11.130434782608695" style="fill:#000000;shape-rendering:crispEdges;"/>
  <rect x="55.65217391304348" y="200.3478260869565" width="11.130434782608695" height="11.130434782608695" style="fill:#000000;shape-rendering:crispEdges;"/>
  <rect x="77.91304347826087" y="200.3478260869565" width="11.130434782608695" height="11.130434782608695" style="fill:#000000;shape-rendering:crispEdges;"/>
  <rect x="100.17391304347825" y="200.3478260869565" width="11.130434782608695" height="11.130434782608695" style="fill:#000000;shape-rendering:crispEdges;"/>
  <rect x="122.43478260869566" y="200.3478260869565" width="11.130434782608695" height="11.130434782608695" style="fill:#000000;shape-rendering:crispEdges;"/>
  <rect x="144.69565217391303" y="200.3478260869565" width="11.130434782608695" height="11.130434782608695" style="fill:#000000;shape-rendering:crispEdges;"/>
  <rect x="155.82608695652172" y="200.3478260869565" width="11.130434782608695" height="11.130434782608695" style="fill:#000000;shape-rendering:crispEdges;"/>
  <rect x="166.95652173913044" y="200.3478260869565" width="11.130434782608695" height="11.130434782608695" style="fill:#000000;shape-rendering:crispEdges;"/>
  <rect x="222.6086956521739" y="200.3478260869565" width="11.130434782608695" height="11.130434782608695" style="fill:#000000;shape-rendering:crispEdges;"/>
  <rect x="233.7391304347826" y="200.3478260869565" width="11.130434782608695" height="11.130434782608695" style="fill:#000000;shape-rendering:crispEdges;"/>
  <rect x="11.130434782608695" y="211.4782608695652" width="11.130434782608695" height="11.130434782608695" style="fill:#000000;shape-rendering:crispEdges;"/>
  <rect x="33.391304347826086" y="211.4782608695652" width="11.130434782608695" height="11.130434782608695" style="fill:#000000;shape-rendering:crispEdges;"/>
  <rect x="44.52173913043478" y="211.4782608695652" width="11.130434782608695" height="11.130434782608695" style="fill:#000000;shape-rendering:crispEdges;"/>
  <rect x="55.65217391304348" y="211.4782608695652" width="11.130434782608695" height="11.130434782608695" style="fill:#000000;shape-rendering:crispEdges;"/>
  <rect x="77.91304347826087" y="211.4782608695652" width="11.130434782608695" height="11.130434782608695" style="fill:#000000;shape-rendering:crispEdges;"/>
  <rect x="111.30434782608694" y="211.4782608695652" width="11.130434782608695" height="11.130434782608695" style="fill:#000000;shape-rendering:crispEdges;"/>
  <rect x="166.95652173913044" y="211.4782608695652" width="11.130434782608695" height="11.130434782608695" style="fill:#000000;shape-rendering:crispEdges;"/>
  <rect x="178.08695652173913" y="211.4782608695652" width="11.130434782608695" height="11.130434782608695" style="fill:#000000;shape-rendering:crispEdges;"/>
  <rect x="189.2173913043478" y="211.4782608695652" width="11.130434782608695" height="11.130434782608695" style="fill:#000000;shape-rendering:crispEdges;"/>
  <rect x="211.4782608695652" y="211.4782608695652" width="11.130434782608695" height="11.130434782608695" style="fill:#000000;shape-rendering:crispEdges;"/>
  <rect x="233.7391304347826" y="211.4782608695652" width="11.130434782608695" height="11.130434782608695" style="fill:#000000;shape-rendering:crispEdges;"/>
  <rect x="11.130434782608695" y="222.6086956521739" width="11.130434782608695" height="11.130434782608695" style="fill:#000000;shape-rendering:crispEdges;"/>
  <rect x="77.91304347826087" y="222.6086956521739" width="11.130434782608695" height="11.130434782608695" style="fill:#000000;shape-rendering:crispEdges;"/>
  <rect x="100.17391304347825" y="222.6086956521739" width="11.130434782608695" height="11.130434782608695" style="fill:#000000;shape-rendering:crispEdges;"/>
  <rect x="111.30434782608694" y="222.6086956521739" width="11.130434782608695" height="11.130434782608695" style="fill:#000000;shape-rendering:crispEdges;"/>
  <rect x="133.56521739130434" y="222.6086956521739" width="11.130434782608695" height="11.130434782608695" style="fill:#000000;shape-rendering:crispEdges;"/>
  <rect x="144.69565217391303" y="222.6086956521739" width="11.130434782608695" height="11.130434782608695" style="fill:#000000;shape-rendering:crispEdges;"/>
  <rect x="155.82608695652172" y="222.6086956521739" width="11.130434782608695" height="11.130434782608695" style="fill:#000000;shape-rendering:crispEdges;"/>
  <rect x="166.95652173913044" y="222.6086956521739" width="11.130434782608695" height="11.130434782608695" style="fill:#000000;shape-rendering:crispEdges;"/>
  <rect x="178.08695652173913" y="222.6086956521739" width="11.130434782608695" height="11.130434782608695" style="fill:#000000;shape-rendering:crispEdges;"/>
  <rect x="189.2173913043478" y="222.6086956521739" width="11.130434782608695" height="11.130434782608695" style="fill:#000000;shape-rendering:crispEdges;"/>
  <rect x="200.3478260869565" y="222.6086956521739" width="11.130434782608695" height="11.130434782608695" style="fill:#000000;shape-rendering:crispEdges;"/>
  <rect x="11.130434782608695" y="233.7391304347826" width="11.130434782608695" height="11.130434782608695" style="fill:#000000;shape-rendering:crispEdges;"/>
  <rect x="22.26086956521739" y="233.7391304347826" width="11.130434782608695" height="11.130434782608695" style="fill:#000000;shape-rendering:crispEdges;"/>
  <rect x="33.391304347826086" y="233.7391304347826" width="11.130434782608695" height="11.130434782608695" style="fill:#000000;shape-rendering:crispEdges;"/>
  <rect x="44.52173913043478" y="233.7391304347826" width="11.130434782608695" height="11.130434782608695" style="fill:#000000;shape-rendering:crispEdges;"/>
  <rect x="55.65217391304348" y="233.7391304347826" width="11.130434782608695" height="11.130434782608695" style="fill:#000000;shape-rendering:crispEdges;"/>
  <rect x="66.78260869565217" y="233.7391304347826" width="11.130434782608695" height="11.130434782608695" style="fill:#000000;shape-rendering:crispEdges;"/>
  <rect x="77.91304347826087" y="233.7391304347826" width="11.130434782608695" height="11.130434782608695" style="fill:#000000;shape-rendering:crispEdges;"/>
  <rect x="100.17391304347825" y="233.7391304347826" width="11.130434782608695" height="11.130434782608695" style="fill:#000000;shape-rendering:crispEdges;"/>
  <rect x="111.30434782608694" y="233.7391304347826" width="11.130434782608695" height="11.130434782608695" style="fill:#000000;shape-rendering:crispEdges;"/>
  <rect x="122.43478260869566" y="233.7391304347826" width="11.130434782608695" height="11.130434782608695" style="fill:#000000;shape-rendering:crispEdges;"/>
  <rect x="189.2173913043478" y="233.7391304347826" width="11.130434782608695" height="11.130434782608695" style="fill:#000000;shape-rendering:crispEdges;"/>
  <rect x="222.6086956521739" y="233.7391304347826" width="11.130434782608695" height="11.130434782608695" style="fill:#000000;shape-rendering:crispEdges;"/>
</svg>